solid "EndPlate_Right"
  facet normal 0 1 0
    outer loop
      vertex 0.272141814232 0.287999987602 0.731512308121
      vertex 0.272141814232 0.287999987602 0.486254811287
      vertex 0.195023402572 0.287999987602 0.732069671154
    endloop
  endfacet
  facet normal 0 1 0
    outer loop
      vertex 0.195023402572 0.287999987602 0.732069671154
      vertex 0.272141814232 0.287999987602 0.486254811287
      vertex 0.0330747589469 0.287999987602 0.732069671154
    endloop
  endfacet
  facet normal 0 1 0
    outer loop
      vertex 0.0330747589469 0.287999987602 0.732069671154
      vertex 0.272141814232 0.287999987602 0.486254811287
      vertex 0.0330747589469 0.287999987602 0.400460511446
    endloop
  endfacet
  facet normal 0 1 0
    outer loop
      vertex 0.0330747589469 0.287999987602 0.732069671154
      vertex 0.0330747589469 0.287999987602 0.400460511446
      vertex -0.288894593716 0.287999987602 0.572049021721
    endloop
  endfacet
  facet normal 0 1 0
    outer loop
      vertex -0.288894593716 0.287999987602 0.572049021721
      vertex 0.0330747589469 0.287999987602 0.400460511446
      vertex -0.288894593716 0.287999987602 0.400460511446
    endloop
  endfacet
  facet normal 0.00722723593935 -0 0.999973893166
    outer loop
      vertex 0.195023402572 0.270999997854 0.732069671154
      vertex 0.272141814232 0.270999997854 0.731512308121
      vertex 0.195023402572 0.287999987602 0.732069671154
    endloop
  endfacet
  facet normal 0.00722723593935 0 0.999973893166
    outer loop
      vertex 0.195023402572 0.287999987602 0.732069671154
      vertex 0.272141814232 0.270999997854 0.731512308121
      vertex 0.272141814232 0.287999987602 0.731512308121
    endloop
  endfacet
  facet normal 0 0 1
    outer loop
      vertex 0.0330747589469 0.270999997854 0.732069671154
      vertex 0.195023402572 0.270999997854 0.732069671154
      vertex 0.0330747589469 0.287999987602 0.732069671154
    endloop
  endfacet
  facet normal -0 0 1
    outer loop
      vertex 0.0330747589469 0.287999987602 0.732069671154
      vertex 0.195023402572 0.270999997854 0.732069671154
      vertex 0.195023402572 0.287999987602 0.732069671154
    endloop
  endfacet
  facet normal -0.445067316294 0 0.895497083664
    outer loop
      vertex -0.288894593716 0.270999997854 0.572049021721
      vertex 0.0330747589469 0.270999997854 0.732069671154
      vertex -0.288894593716 0.287999987602 0.572049021721
    endloop
  endfacet
  facet normal -0.445067316294 1.1753490586e-15 0.895497083664
    outer loop
      vertex -0.288894593716 0.287999987602 0.572049021721
      vertex 0.0330747589469 0.270999997854 0.732069671154
      vertex 0.0330747589469 0.287999987602 0.732069671154
    endloop
  endfacet
  facet normal -1 0 0
    outer loop
      vertex -0.288894593716 0.270999997854 0.400460511446
      vertex -0.288894593716 0.270999997854 0.572049021721
      vertex -0.288894593716 0.287999987602 0.400460511446
    endloop
  endfacet
  facet normal -1 0 0
    outer loop
      vertex -0.288894593716 0.287999987602 0.400460511446
      vertex -0.288894593716 0.270999997854 0.572049021721
      vertex -0.288894593716 0.287999987602 0.572049021721
    endloop
  endfacet
  facet normal 0 0 -1
    outer loop
      vertex 0.0330747589469 0.270999997854 0.400460511446
      vertex -0.288894593716 0.270999997854 0.400460511446
      vertex 0.0330747589469 0.287999987602 0.400460511446
    endloop
  endfacet
  facet normal -0 0 -1
    outer loop
      vertex 0.0330747589469 0.287999987602 0.400460511446
      vertex -0.288894593716 0.270999997854 0.400460511446
      vertex -0.288894593716 0.287999987602 0.400460511446
    endloop
  endfacet
  facet normal 0.337778776884 0 -0.941225528717
    outer loop
      vertex 0.272141814232 0.270999997854 0.486254811287
      vertex 0.0330747589469 0.270999997854 0.400460511446
      vertex 0.272141814232 0.287999987602 0.486254811287
    endloop
  endfacet
  facet normal 0.337778776884 8.31243353145e-16 -0.941225528717
    outer loop
      vertex 0.272141814232 0.287999987602 0.486254811287
      vertex 0.0330747589469 0.270999997854 0.400460511446
      vertex 0.0330747589469 0.287999987602 0.400460511446
    endloop
  endfacet
  facet normal 1 -0 0
    outer loop
      vertex 0.272141814232 0.270999997854 0.731512308121
      vertex 0.272141814232 0.270999997854 0.486254811287
      vertex 0.272141814232 0.287999987602 0.731512308121
    endloop
  endfacet
  facet normal 1 0 0
    outer loop
      vertex 0.272141814232 0.287999987602 0.731512308121
      vertex 0.272141814232 0.270999997854 0.486254811287
      vertex 0.272141814232 0.287999987602 0.486254811287
    endloop
  endfacet
  facet normal -0 -1 -0
    outer loop
      vertex 0.272141814232 0.270999997854 0.731512308121
      vertex 0.195023402572 0.270999997854 0.732069671154
      vertex 0.272141814232 0.270999997854 0.486254811287
    endloop
  endfacet
  facet normal 0 -1 0
    outer loop
      vertex 0.272141814232 0.270999997854 0.486254811287
      vertex 0.195023402572 0.270999997854 0.732069671154
      vertex 0.0330747589469 0.270999997854 0.732069671154
    endloop
  endfacet
  facet normal -0 -1 0
    outer loop
      vertex 0.272141814232 0.270999997854 0.486254811287
      vertex 0.0330747589469 0.270999997854 0.732069671154
      vertex 0.0330747589469 0.270999997854 0.400460511446
    endloop
  endfacet
  facet normal 0 -1 0
    outer loop
      vertex 0.0330747589469 0.270999997854 0.400460511446
      vertex 0.0330747589469 0.270999997854 0.732069671154
      vertex -0.288894593716 0.270999997854 0.572049021721
    endloop
  endfacet
  facet normal 0 -1 0
    outer loop
      vertex 0.0330747589469 0.270999997854 0.400460511446
      vertex -0.288894593716 0.270999997854 0.572049021721
      vertex -0.288894593716 0.270999997854 0.400460511446
    endloop
  endfacet
endsolid "EndPlate_Right"
